<svg xmlns="http://www.w3.org/2000/svg" viewBox="0 0 384 286.79"><defs><style>.cls-1{fill:#ffbd39;}</style></defs><title>Asset 1</title><g id="Layer_2" data-name="Layer 2"><g id="Layer_1-2" data-name="Layer 1"><path class="cls-1" d="M.66,234.82q3.21-19.75,6.45-39.52,3.15-19,6.39-38c.2-1.23.39-2.47.68-3.68.8-3.38,3.52-5.34,6.49-4.75,3.22.64,5.07,3.49,4.48,7.08-1.49,9-3,18-4.53,26.94-3.05,18.21-6.27,36.4-9.09,54.65-2.52,16.34,9,32.77,25.46,37,16.69,4.29,34.36-4.3,40.21-20.52,7.9-21.91,15-44.09,22.5-66.15,2.26-6.69,5.1-7.69,11.11-3.88a35.31,35.31,0,0,0,43.54-4.06,9.87,9.87,0,0,1,7.33-2.92q30.36.13,60.73,0a9.87,9.87,0,0,1,7.31,3,35.26,35.26,0,0,0,43.22,4.13c6.41-4,9.06-3.05,11.5,4.2,3,9,6.07,17.92,9,26.92,1.1,3.36-.33,6.12-3.39,7.24s-5.82-.33-7.18-3.6c-.34-.8-.57-1.65-.85-2.47-2-6-4.13-12-6-18.09-.66-2.15-1.41-2.17-3.3-1.4q-26.64,10.8-49.08-7.25a5.93,5.93,0,0,0-4.07-1.38q-27.56,0-55.11,0a6.41,6.41,0,0,0-4.35,1.62c-14.74,11.79-31,14.12-48.46,7.16-2.84-1.14-3.11-.22-3.83,1.94-6.38,19.14-12.71,38.29-19.33,57.34A45,45,0,0,1,46,286.79c-19.66,0-36.66-11.7-43.25-29.93-1.09-3-1.84-6.11-2.75-9.17v-9C.9,237.52-.06,236,.66,234.82Z"/><path class="cls-1" d="M.66,234.82c.27,1.37.41,2.73-.66,3.87v-3.75Q.33,234.86.66,234.82Z"/><path class="cls-1" d="M167,104.28c2.87,0,5.74-.11,8.61,0,3.2.16,5.07,2,5.26,5.2s-1.55,5.58-4.64,5.75a166.47,166.47,0,0,1-18.69,0c-3.1-.18-4.8-2.61-4.54-5.82s2.18-5,5.38-5.1C161.23,104.19,164.1,104.28,167,104.28Z"/><path class="cls-1" d="M217.11,104.28c2.87,0,5.75-.1,8.61,0,3.2.15,5.09,2,5.3,5.17s-1.54,5.6-4.63,5.77a166.48,166.48,0,0,1-18.69,0c-3.1-.17-4.78-2.59-4.55-5.81s2.15-5,5.34-5.12C211.36,104.18,214.23,104.28,217.11,104.28Z"/><path class="cls-1" d="M383.36,234.48c-1.86-11.45-3.71-22.91-5.62-34.35-6.42-38.27-13.1-76.49-19.19-114.81-3.64-22.94-14-41.45-34.33-53-7.12-4-10.09-7.84-9.45-16.06.68-8.72-7-15.9-15.8-16.15q-11.43-.3-22.87,0a16.39,16.39,0,0,0-16,15.73c-.17,3.24-.18,6.5,0,9.74a3.41,3.41,0,0,1-2.29,3.73,60,60,0,0,0-16,10.88,6.93,6.93,0,0,1-5.28,2c-28.12-.06-56.24-.13-84.36,0-4.94,0-9.24-.37-12.68-4.43a22.57,22.57,0,0,0-5.38-4c-3.24-2.06-7.91-3.23-9.51-6.13-1.7-3.1-.44-7.78-.65-11.76A16.38,16.38,0,0,0,108,.16Q96.54-.16,85.1.15A16.6,16.6,0,0,0,69,16.62a73.78,73.78,0,0,0,0,7.87c.18,2.23-.69,3.26-2.69,4.17a69.07,69.07,0,0,0-30.69,27.1C29.8,65.14,27,75.53,25.38,86.36c-2.22,14.43-4.86,28.79-7.27,43.19-.78,4.7.84,7.53,4.42,8.06s6-1.6,6.74-6.24C32,115.25,34.88,99.16,37.4,83,44,41,92.51,19.59,127.93,43.18c5.7,3.79,9.4,7.68,8.82,15.52-.71,9.59,7.46,18.35,16.83,19.46,9.07,1.07,18.22.52,27.33.3a5.19,5.19,0,0,0,5.28-6.3c-.55-3.69-3.14-4.86-6.47-4.88-7.25,0-14.5.07-21.74,0-6.57-.09-10-3.8-10.29-10.27-.11-2.68.42-3.57,3.38-3.55,20.62.16,41.24.08,61.86.08,6.88,0,13.75.07,20.62,0,2,0,2.76.43,2.77,2.63,0,7.32-3.52,11.11-10.92,11.17-7.13.06-14.25-.06-21.37,0-4,.06-6.22,2.16-6.31,5.46s2.11,5.72,6,5.77c8.24.11,16.51.28,24.73-.19a19.93,19.93,0,0,0,18.76-16.93,40.37,40.37,0,0,0,.28-8.59,5.24,5.24,0,0,1,2-4.49c32.23-28.9,84-13.77,95.64,28,1.91,6.86,2.67,14,3.85,21q11.66,69.39,23.27,138.8A34.16,34.16,0,0,1,306.7,254c-2-5.22-3.64-10.6-5.48-15.89-1.49-4.25-4.12-5.9-7.51-4.79s-4.62,4.11-3.26,8.27c1.66,5.09,3.33,10.18,5.15,15.21,6.87,19,24.59,30.63,45.47,29.93,18.75-.64,35.77-14.19,41.19-32.76.54-1.85.38-3.93,1.74-5.52V235.69C383.44,235.47,383.44,235,383.36,234.48ZM106.62,23.08a60.94,60.94,0,0,0-23,.2c-2.86.6-3.86-.06-3.41-3,.18-1.09,0-2.24.05-3.35.24-3.47,2.22-5.48,5.72-5.59s7.22,0,10.83,0c3.11,0,6.23,0,9.34,0,4.58.06,6.43,2,6.55,6.63C112.86,24.21,112.87,24.15,106.62,23.08Zm191.9-.25a68.82,68.82,0,0,0-24.86,1c-1.84.42-2.52.23-2.38-1.75.11-1.61,0-3.24.05-4.85.19-3.75,2.11-5.71,5.82-5.81,3.49-.1,7,0,10.46,0,3.11,0,6.22,0,9.34,0,4.82.05,6.73,2,6.81,6.78C303.85,23.6,303.85,23.59,298.52,22.83Z"/><path class="cls-1" d="M115.55,76.1c-1.85-.22-2.12-.86-2.26-2.48-.86-9.4-7.85-16.17-16.79-16.42a17.28,17.28,0,0,0-18,15.51c-.33,2.69-1.19,3.21-3.73,3.53a17.51,17.51,0,0,0,.8,34.85c2.09.18,2.53.79,2.78,2.75,1.26,9.8,8.22,16.16,17.42,16.18A17.32,17.32,0,0,0,113.29,114c.13-1.57,0-2.64,2.28-2.86,10-1,16.58-8,16.66-17.3C132.32,84.3,125.84,77.31,115.55,76.1Zm-1.1,23.82c-2,.09-4,0-6,0-4.08.12-6.16,2.16-6.33,6.26-.09,2.24.07,4.5-.09,6.73a6,6,0,0,1-6.13,5.79c-3.43,0-6-2.31-6.35-6-.22-2.35,0-4.74-.14-7.1-.21-3.49-2.21-5.45-5.72-5.62-2.24-.11-4.49.06-6.74-.06a6.3,6.3,0,0,1-.28-12.59c2.11-.19,4.24,0,6.36-.07,4.39-.09,6.29-2,6.42-6.42.06-2-.09-4,.06-6,.31-3.91,3-6.46,6.47-6.37s6,2.67,6.1,6.65c.08,2.12-.08,4.25.06,6.36.25,3.7,2.3,5.63,6,5.76,2.12.07,4.25-.08,6.37.05,3.93.24,6.44,2.79,6.41,6.38S118.4,99.76,114.45,99.92Z"/><path class="cls-1" d="M131.62,131.31a23.27,23.27,0,1,0,23,23.46A23,23,0,0,0,131.62,131.31Zm-.13,35.28a12.38,12.38,0,0,1-12.1-12.22,12.08,12.08,0,0,1,12.4-11.79,11.85,11.85,0,0,1,11.61,12.1A12.08,12.08,0,0,1,131.49,166.59Z"/><path class="cls-1" d="M252.75,131.31a23.07,23.07,0,0,0-23.43,23.09,23.28,23.28,0,1,0,23.43-23.09Zm-.27,35.28a12.11,12.11,0,0,1-11.88-11.94,11.8,11.8,0,0,1,11.63-12.07,12.09,12.09,0,0,1,12.38,11.82A12.35,12.35,0,0,1,252.48,166.59Z"/><path class="cls-1" d="M319.91,77.26a16.41,16.41,0,1,0,16.18,16.57A16.21,16.21,0,0,0,319.91,77.26Zm-.46,21.45c-3.08-.22-4.71-2.11-4.9-5.06a5.05,5.05,0,0,1,5.22-5.11,5.09,5.09,0,1,1-.32,10.17Z"/><path class="cls-1" d="M292,105a16.4,16.4,0,1,0,16.37,16.39A16.25,16.25,0,0,0,292,105Zm.1,21.48a5.16,5.16,0,0,1-5.29-5.09,5.07,5.07,0,0,1,5.25-5.09c3,.14,4.81,1.79,5,4.87A4.94,4.94,0,0,1,292.12,126.43Z"/><path class="cls-1" d="M291.69,82.4a16.44,16.44,0,0,0,16.69-16.16,16.21,16.21,0,0,0-16.06-16.68,16.42,16.42,0,0,0-16.78,16.06A16.6,16.6,0,0,0,291.69,82.4Zm-4.82-16.56c.23-2.94,1.81-4.84,4.95-5a4.93,4.93,0,0,1,5.29,5,5.12,5.12,0,1,1-10.24,0Z"/><path class="cls-1" d="M280.69,93.64a16.42,16.42,0,0,0-32.83,0,16.42,16.42,0,1,0,32.83,0Zm-16.34,5.11a5,5,0,0,1-5.15-5.17c.17-3,1.77-4.83,4.88-5a4.91,4.91,0,0,1,5.32,4.93A5,5,0,0,1,264.35,98.75Z"/></g></g></svg>