<svg xmlns="http://www.w3.org/2000/svg" viewBox="0 0 409.6 262.45"><defs><style>.cls-1{fill:#ffbd39;}</style></defs><title>Asset 1</title><g id="Layer_2" data-name="Layer 2"><g id="Layer_1-2" data-name="Layer 1"><path class="cls-1" d="M91.66,149.75A43.2,43.2,0,0,0,106,129.05c3-8.69,2.15-17.65,2.09-26.54-.1-14.81-6.25-26.72-18-35.65-1.58-1.19-2.1-2.16-1.72-4.25,2-10.73-1.65-19.44-10.48-25.76-8.1-5.8-19.36-5.76-27.84-.3A25,25,0,0,0,39,62.15a4.31,4.31,0,0,1-1.93,5A41.91,41.91,0,0,0,21.43,89.18c-3.32,11-2.69,22.15-1.43,33.28,1,9,4.61,17.41,11.54,23.06,6.33,5.16,7.53,11,7,18.29-.27,3.95-1.7,6.49-5.19,8.15-4.2,2-8.23,4.38-12.52,6.16-10,4.15-17.77,10.39-20.84,21.29v59.2C2.15,261,4.24,263.42,8,262s4-4.51,4-7.87q-.06-21.6,0-43.19c0-1.09-.53-2.34.77-3.66,2.42,2.55,4.65,5.2,7.19,7.51a16.86,16.86,0,0,1,5.7,13.85c-.25,8.93-.12,17.86,0,26.79,0,4.37,2.48,7.08,6,7.06s5.91-2.75,5.93-7.12c0-9.86.06-19.73,0-29.59a23.52,23.52,0,0,0-6.35-16.36c-4.1-4.37-8.25-8.71-12.64-12.8-2.23-2.08-1.53-3,.64-4.14,7.46-3.79,15-7.51,22.34-11.46,1.77-.94,2.36.1,3.25,1,3.6,3.57,7.09,7.24,10.79,10.69a6.43,6.43,0,0,1,2.09,5.26c-.07,13.46,0,26.93,0,40.39,0,5.6-.06,11.2,0,16.8.07,4.61,2.53,7.44,6.16,7.33s5.72-2.79,5.82-7.21c0-.93,0-1.86,0-2.8,0-15.59.47-31.21-.19-46.78-.34-7.88,1.59-13.81,7.86-18.54,2.42-1.83,4-5.27,6.65-6.15s5.19,2.38,8,3.35c.12,0,.24.11.36.16,3.93,1.66,7,.88,8.62-2.17,1.71-3.27.7-7-3.39-8.44-7.55-2.72-9.71-7.95-8.69-15.28a10.42,10.42,0,0,0,0-2.79C88.49,153.13,89.54,151.4,91.66,149.75ZM50.53,56.61c.57-7.15,7.26-12.86,14.18-12.15,7.91.8,12.87,7.22,11.78,15.49A46,46,0,0,0,53,59.49C50,60.26,50.4,58.32,50.53,56.61ZM63.61,70.06c17.09-.14,31.38,13.6,32.5,31,.19,3-.77,4.17-3.58,4.7-13.67,2.54-25.25-1.4-34.9-11.16-5.49-5.55-7.52-5.77-13.28-.64a33.92,33.92,0,0,1-12.87,7.52C32.55,83.55,46.31,70.2,63.61,70.06ZM76.43,171.2c-3.7,3.64-7.44,7.26-11,11-1.42,1.49-2.28,1.23-3.47-.14a26.5,26.5,0,0,0-4.25-4.22c-6.84-5-9.46-11.38-6.52-19.84a46.54,46.54,0,0,0,25.55-.17c.37,3.88-.18,7.24.7,10.51A2.76,2.76,0,0,1,76.43,171.2Zm-11-23.58c-17.53,1.55-34.17-13.8-34.23-31.45,0-1.72.61-2.21,2.12-2.64a42.9,42.9,0,0,0,14.87-7.44c1.66-1.3,2.81-1.23,4.43.16,11.83,10,25.42,14.16,40.79,11.36,3-.56,2.58.73,2.3,2.61C93.62,134.83,80.92,147.07,65.46,147.62Z"/><path class="cls-1" d="M391.28,166.51c-9.57-4.3-18.84-9.25-28.2-14-4.54-2.31-7.15-12.55-3.76-16,8.87-8.9,12.4-19.6,11.83-31.9-.08-1.64.21-2.53,2.16-3,2.95-.68,4.18-3.13,4.22-6,.07-4,.13-8,0-12-.58-18-10.92-31.72-27.74-36.77C342.54,44.66,335,45,327.58,45.23c-15.26.42-27,6.92-34.54,20.53-5.51,10-4.49,20.86-4.18,31.62a4,4,0,0,0,3,3.87c3.78.54,3.25,3.12,3.18,5.56-.36,11.36,3.27,21.17,11.37,29.23a3.59,3.59,0,0,1,1.47,2.67c0,5.39,1,10.95-5.09,14.45-2.54,1.48-2.68,4.53-1.18,7.16,1.39,2.43,4,4.2,6.31,2.66,4.7-3.13,6.76.09,9.34,2.81a74.37,74.37,0,0,0,6.24,6.19c2.79,2.31,3.71,5,3.68,8.61-.18,24.79-.11,49.58-.08,74.37,0,4.68,2.3,7.48,5.94,7.49s5.91-2.82,6.05-7.48c0-.8,0-1.6,0-2.4,0-21.06.56-42.14-.24-63.16-.39-10,1.9-17.55,9.91-23.77,5.1-4,4.7-4.48,10.63-1.51l29.91,15c-3,2.94-5.63,5.57-8.33,8.12A27.77,27.77,0,0,0,371.92,209c.21,10.65.05,21.32.05,32,0,5.07-.14,10.14,0,15.19.2,5.29,5.13,7.95,9.25,5.18,2.4-1.62,2.72-4.07,2.71-6.69,0-14.93.48-29.88-.17-44.78-.47-10.59,7.09-15.06,13.79-20.81v5.1q0,30,0,60c0,3.36.31,6.43,4,7.86s5.85-1,8-3.35v-71.2C407.15,177.24,400.72,170.76,391.28,166.51ZM303.71,87.66c-2.3,1.11-3.09,1-3.13-1.93-.2-16.88,10.6-28.2,27.45-28.54,1.73,0,3.46,0,6.27,0,7.49-.35,15.65.64,22.41,6.69,7.39,6.62,9.31,15.17,8.83,24.58-.12,2.38-2,1.31-3,1.23a96.05,96.05,0,0,1-37.32-10.43c-5.27-2.77-6.39-2.71-11,1.35A45.39,45.39,0,0,1,303.71,87.66Zm41.73,64.54c-3.57,3.57-7.21,7.07-10.67,10.74-1.34,1.41-2.13,1.41-3.46,0-3.47-3.66-7-7.3-10.71-10.7-2.4-2.18-.88-4.46-.59-6.64.18-1.35,1.54-.5,2.3-.28a37.87,37.87,0,0,0,21.54,0c4.63-1.32,1.47,3.08,2.8,3.87C347.06,150.76,346.19,151.45,345.44,152.2Zm-20.93-18.7a26.43,26.43,0,0,1-17.39-22.73c-.6-7.07-.27-12.53,7.82-16,4.77-2.08,7.92-3.62,13-1.09,8.11,4,17.06,5.78,26,7.14,5.21.79,5.2.89,5.17,6.29C359.05,126.67,342.22,139.51,324.51,133.5Z"/><path class="cls-1" d="M294.22,178.72c-.06-14.78-6.79-25.37-20.43-31.41q-16-7.09-32-14.28c-6.17-2.79-7.77-14-2.76-18.58a50.83,50.83,0,0,0,14.71-23.77c2.28-8,2.08-16.08,2-24.2,0-2,.34-3.41,2.09-4.74,3.3-2.53,4.42-6.32,4.29-10.3-.66-20.48-9.86-35.88-28-45.54C220.74-1.21,206.23-.51,191.89,1c-15.17,1.57-27,9.38-35.62,21.82C147.11,36,146.45,50.87,148,66.11a9.08,9.08,0,0,0,3.74,6.41,5.33,5.33,0,0,1,2.21,4.72c.36,13.44,4.7,25.51,14.5,34.81,4,3.8,4.94,7.57,4.77,12.55-.15,4.23-1.66,6.92-5.65,8.63-10.62,4.55-21.12,9.4-31.69,14.07-13.64,6-20.41,16.59-20.47,31.38-.1,25.06,0,50.12,0,75.19a15.8,15.8,0,0,0,.52,4.33,5.35,5.35,0,0,0,6,4.12,5.41,5.41,0,0,0,5.29-5.08,37.91,37.91,0,0,0,.14-4.4q0-36.39,0-72.79v-4.22l.88-.49c4.44,4.5,8.74,9.15,13.35,13.46A17.84,17.84,0,0,1,147.51,203c-.2,17.33-.11,34.67,0,52,0,4.67,2.44,7.47,6,7.46s5.91-2.77,5.92-7.48c0-17.87,0-35.73.05-53.6a26.84,26.84,0,0,0-8.43-20c-4.74-4.68-9.43-9.42-14.15-14.13-4.47-4.48-4.47-4.52,1-7.58.58-.32,1.16-.67,1.76-.93,10.44-4.64,20.92-9.2,31.31-14,2-.9,3.05-.48,4.45,1,6.81,6.94,13.65,13.86,20.65,20.62a8.31,8.31,0,0,1,2.78,6.61q-.14,40,0,80a23.27,23.27,0,0,0,.41,5.15,5.79,5.79,0,0,0,11.15.06,22.77,22.77,0,0,0,.42-5.16q0-40.2,0-80.39c0-2,.19-3.75,1.85-5.37q10.91-10.58,21.49-21.48c1.59-1.64,2.8-1.76,4.81-.84,10.15,4.65,20.38,9.11,30.56,13.68a36.43,36.43,0,0,1,4.53,2.51c2,1.24,2.72,2.36.47,4.46-5.46,5.09-10.6,10.51-15.9,15.77s-8.38,11.3-8.39,18.79c0,18.53-.07,37.06,0,55.59,0,4.08,2.48,6.69,5.86,6.73s5.74-2.61,6.07-6.62c.09-1.06,0-2.13,0-3.2q0-25.2,0-50.39c0-3.1,0-6.28,2-8.8,5.14-6.59,11.59-11.91,18.1-18.88V180q0,36.6,0,73.19a26.69,26.69,0,0,0,.19,4.39,5.81,5.81,0,0,0,11.14,1,13.92,13.92,0,0,0,.64-4.7C294.26,228.85,294.31,203.78,294.22,178.72Zm-70.84-39c-5.73,5.34-11.2,11-16.67,16.6-1.41,1.46-2.22,1.67-3.75.09-6.21-6.39-12.56-12.63-18.86-18.93-.37-.38-1.08-.84-1-1.16.68-4,1.47-7.9,2.29-11.83,0-.16.7-.19.81-.21,1.77.56,3.27,1.11,4.8,1.52a50.2,50.2,0,0,0,30.55-1c2.22-.78,3.12-.73,3.1,1.87,0,1.57,0,3.41.73,4.66C227.56,135,226.08,137.2,223.38,139.73Zm-47.11-36.55a41.4,41.4,0,0,1-10.42-25.7c-.13-2.25.29-3.76,2.61-4.64,3-1.15,5.46-3.3,7.86-5.39a6,6,0,0,0,1.17-8.23c-1.93-2.65-5.46-3.17-8.52-1.1s-5.43,4.66-9.34,5.17c-.82-13.25-.19-25.92,8.84-36.65,7.15-8.5,16.26-13.41,27.2-14.08,9.38-.58,18.83-1.06,28.1,2,14.74,4.85,26.43,20.53,26.35,36,0,1.25.12,2.28-1.64,2.56-19.14,3.11-37.7,2.89-54.37-8.92-1.41-1-2.66-2.22-4-3.3-3.29-2.64-6.51-2.65-8.9,0s-2.06,6.09.84,8.87a59.18,59.18,0,0,0,24,13.7c11.25,3.49,22.8,3.87,34.4,2.89,2.79-.24,3.32.4,3.37,3,.18,9.57-.81,18.73-5.66,27.34C225.8,118.71,192.85,122.21,176.27,103.18Z"/></g></g></svg>