<svg xmlns="http://www.w3.org/2000/svg" viewBox="0 0 409.58 409.58"><defs><style>.cls-1{fill:#fff;}</style></defs><title>Asset 3</title><g id="Layer_2" data-name="Layer 2"><g id="Layer_1-2" data-name="Layer 1"><path class="cls-1" d="M327.78,69.87A7.91,7.91,0,0,1,336,62.43a8,8,0,1,1-8.21,7.44Z"/><path class="cls-1" d="M74.14,331.24a8,8,0,1,1-8,7.8A8.06,8.06,0,0,1,74.14,331.24Z"/><path class="cls-1" d="M286.29,212.7c14.4.16,28.8.13,43.2,0,2.19,0,3.19.64,4.06,2.68a26.73,26.73,0,0,0,30.28,15.94,27.1,27.1,0,0,0,0-53.12,26.73,26.73,0,0,0-30.28,15.94c-.87,2-1.87,2.69-4.06,2.67-14.27-.11-28.54-.17-42.8,0-3.18,0-3.6-1-3.58-3.79.13-18.66.07-37.33.06-56,0-8.1-2.65-10.7-10.86-10.71-2.4,0-4.81-.17-7.19,0s-2.8-.76-2.79-2.92c.09-14,.13-28,0-42,0-2.74.85-3.22,3.34-3.2,12.93.12,25.86.06,38.79.06a14.88,14.88,0,0,0,5.14-.54c3.55-1.26,5.51-3.84,5.5-7.5a7.34,7.34,0,0,0-5.55-7.43,16.66,16.66,0,0,0-4.74-.51q-24-.06-48,0c-7.65,0-10.41,2.74-10.42,10.34,0,16.8,0,33.6.05,50.39,0,2.48-.44,3.41-3.19,3.35-9.06-.19-18.13-.16-27.19,0-2.5,0-3.37-.46-3.34-3.2.15-14.39.12-28.79,0-43.19,0-2.23.69-3.18,2.7-4a26.76,26.76,0,0,0,15.91-30.3,27.1,27.1,0,0,0-53-.34A26.77,26.77,0,0,0,194.19,76c2.06.88,2.66,1.91,2.64,4.08-.1,14-.16,28,0,42,0,3.32-.51,4.44-4.21,4.4-18.79-.24-37.59-.13-56.39-.1-6.85,0-9.8,2.94-9.88,9.68a69.14,69.14,0,0,0,0,7.2c.27,2.92-.41,4.06-3.75,4q-20.39-.33-40.79,0c-3.21.06-3.58-1-3.57-3.79q.14-43.39,0-86.79c0-2.65.72-3.8,3.25-4.87,11.6-4.93,18-17.79,15.35-30.26a27.09,27.09,0,0,0-53,0C41.23,34,47.57,46.85,59.19,51.82c2.53,1.09,3.25,2.25,3.24,4.89-.1,31.46-.07,62.92-.07,94.39,0,9.91,2.13,12.08,11.89,12.08,16.26,0,32.53,0,48.79-.05,2.38,0,3.48.26,3.42,3.13-.22,9.19-.2,18.4,0,27.59,0,2.63-.84,3-3.16,3q-21.6-.15-43.19,0c-2.17,0-3.2-.58-4.09-2.64a26.73,26.73,0,0,0-30.26-16,27.1,27.1,0,0,0,0,53.12A26.67,26.67,0,0,0,76,215.42c1-2.36,2.29-2.69,4.47-2.68,14.13.07,28.26.15,42.39-.05,3.12,0,3.64.89,3.62,3.76-.14,18.93-.09,37.86-.06,56.79,0,7.05,2.92,9.88,10,9.94,2.67,0,5.35.16,8-.05,2.34-.18,2.83.7,2.82,2.89-.1,14-.13,28,0,42,0,2.68-.77,3.25-3.32,3.23-12.93-.13-25.86-.06-38.79-.06a15.14,15.14,0,0,0-5.14.53c-3.56,1.24-5.52,3.81-5.52,7.48s2,6.23,5.51,7.5a14.85,14.85,0,0,0,5.14.49h47.2c8.21,0,10.84-2.59,10.84-10.71,0-16.54.07-33.07-.06-49.6,0-2.79.37-3.89,3.58-3.79,8.92.26,17.86.17,26.79,0,2.44,0,3.4.37,3.37,3.16-.16,14.4-.13,28.8,0,43.2,0,2.19-.63,3.19-2.67,4.06a26.74,26.74,0,0,0-15.94,30.28,27.09,27.09,0,0,0,53.12,0,26.75,26.75,0,0,0-15.94-30.28c-2-.87-2.7-1.86-2.68-4.06.11-14.27.18-28.53,0-42.8-.05-3.18,1-3.59,3.78-3.58,18.67.13,37.33.07,56,.07,8.1,0,10.69-2.65,10.71-10.87a61.49,61.49,0,0,0-.05-6.79c-.32-2.77.85-3.22,3.32-3.2,13.73.12,27.47.17,41.2,0,3.13-.05,3.62.91,3.61,3.76q-.17,43.4,0,86.79c0,2.61-.66,3.8-3.21,4.89-14.17,6.07-20,23.28-13,37,4.29,8.34,11.47,12.55,20.12,14.88h8c.79-.9,2-.66,2.95-.95a27.34,27.34,0,0,0,20.17-25c.7-11-5.85-21.56-16.72-26.15-2.55-1.08-2.4-2.65-2.4-4.65q0-47.79,0-95.59c0-8.22-2.6-10.84-10.71-10.85-16.54,0-33.07-.07-49.6.06-2.79,0-3.89-.37-3.8-3.57.27-8.93.18-17.86.05-26.79C283.09,213.63,283.5,212.67,286.29,212.7Zm72-19.1a11.18,11.18,0,1,1-11.09,11.28A11.26,11.26,0,0,1,358.3,193.6ZM70.26,38.36A11.18,11.18,0,1,1,81.56,27.3,11.27,11.27,0,0,1,70.26,38.36ZM51.33,216a11.18,11.18,0,1,1,11-11.35A11.26,11.26,0,0,1,51.33,216ZM193.6,50.84a11.18,11.18,0,1,1,10.86,11.5A11.27,11.27,0,0,1,193.6,50.84ZM216,358.73a11.18,11.18,0,1,1-10.84-11.51A11.27,11.27,0,0,1,216,358.73Zm51.3-95.16c0,3-.69,3.69-3.68,3.68q-58.78-.17-117.59,0c-3,0-3.69-.69-3.68-3.68q.18-58.78,0-117.59c0-3,.69-3.7,3.68-3.68,19.6.15,39.2.08,58.8.08s39.19.07,58.79-.08c3,0,3.69.7,3.68,3.68Q267.08,204.78,267.25,263.57ZM339.06,371.2A11.18,11.18,0,1,1,328,382.49,11.28,11.28,0,0,1,339.06,371.2Z"/><path class="cls-1" d="M408,61.54c-4.74-14.47-21.19-22-35.65-16.36a27.22,27.22,0,0,0-14.81,36.05c6.36,14.22,23.25,20.3,36.86,13.45,8.5-4.28,12.85-11.5,15.2-20.3v-8C409,64.77,408.5,63.15,408,61.54Zm-25.49,20a11.18,11.18,0,1,1,11.07-11.3A11.27,11.27,0,0,1,382.49,81.56Z"/><path class="cls-1" d="M27.18,312a27.18,27.18,0,1,0,.19,54.36c14.87-.15,27.21-12.71,27-27.48A27.46,27.46,0,0,0,27.18,312Zm.09,38.36a11.18,11.18,0,1,1,11.08-11.28A11.28,11.28,0,0,1,27.27,350.36Z"/><path class="cls-1" d="M241.56,177.61c0-6.56-3-9.6-9.52-9.62q-27.16-.06-54.34,0c-6.73,0-9.7,3-9.71,9.82q0,27,0,53.94c0,6.79,3,9.78,9.72,9.82,8.92,0,17.85,0,26.77,0,9.19,0,18.38,0,27.57,0,6.5,0,9.5-3.06,9.51-9.61Q241.62,204.77,241.56,177.61Zm-15.94,45.56c0,1.92-.53,2.46-2.45,2.45q-18.39-.12-36.79,0c-1.92,0-2.46-.52-2.45-2.45q.13-18.39,0-36.79c0-1.92.52-2.48,2.44-2.45,6.13.12,12.26,0,18.4,0s12.26.07,18.39,0c1.92,0,2.46.53,2.45,2.45Q225.5,204.79,225.62,223.17Z"/></g></g></svg>